<svg version="1.1" id="Layer_1" xmlns="http://www.w3.org/2000/svg" xmlns:xlink="http://www.w3.org/1999/xlink" x="0px" y="0px"
	 width="100%" viewBox="0 0 585 515" enable-background="new 0 0 585 515" xml:space="preserve">
<path fill="#FFFFFF" opacity="1.000000" stroke="none" 
	d="
M329.000000,516.000000 
	C219.358139,516.000000 110.216278,516.000000 1.037206,516.000000 
	C1.037206,344.397156 1.037206,172.794281 1.037206,1.095713 
	C195.891846,1.095713 390.783752,1.095713 585.837830,1.095713 
	C585.837830,172.666550 585.837830,344.333252 585.837830,516.000000 
	C500.460968,516.000000 414.980499,516.000000 329.000000,516.000000 
M420.512512,366.190552 
	C438.899475,372.830292 453.664856,366.216858 460.732361,348.096466 
	C461.999207,344.848389 463.038116,341.503632 464.037323,338.160187 
	C476.363342,296.915466 488.647644,255.658249 500.993225,214.419388 
	C502.117188,210.664948 503.589783,207.014877 504.900421,203.316330 
	C505.346344,203.361557 505.792267,203.406799 506.238190,203.452026 
	C506.532837,205.293610 507.106964,207.140060 507.074951,208.975937 
	C506.918060,217.962021 506.618011,226.945862 506.334869,235.929443 
	C505.626923,258.390167 504.748291,280.846832 504.233765,303.311859 
	C503.871948,319.108337 503.647400,334.924377 504.031342,350.715424 
	C504.266724,360.396576 511.327728,366.956665 520.945557,367.973999 
	C536.853088,369.656647 546.613525,361.919128 547.880554,345.816895 
	C548.897949,332.885895 549.227417,319.894684 549.634827,306.923035 
	C550.549133,277.806580 551.319275,248.685654 552.153381,219.566696 
	C552.725281,199.600388 553.464722,179.637131 553.817444,159.667007 
	C554.001770,149.233047 549.218445,143.208374 539.302124,140.170334 
	C537.558044,139.635986 535.753845,139.296570 533.975525,138.875198 
	C526.220520,137.037613 526.396912,137.028976 525.957397,129.060959 
	C524.305359,99.107559 515.161011,72.263626 492.665161,51.265457 
	C473.099579,33.002510 450.192902,24.701176 423.497925,30.149300 
	C401.203064,34.699417 384.327087,47.810509 371.154327,65.920631 
	C358.212006,83.713997 352.759674,104.177010 351.203766,125.725044 
	C350.624664,133.745514 348.926819,139.728897 339.748749,140.756729 
	C338.161163,140.934525 336.655029,141.918259 335.131714,142.577057 
	C329.242523,145.124100 326.158752,149.805466 325.199677,155.972855 
	C324.714172,159.094986 324.304413,162.252319 324.192963,165.405502 
	C323.199280,193.516754 322.275360,221.630508 321.340149,249.743820 
	C320.670532,269.872681 319.905090,289.999176 319.392517,310.132111 
	C319.058380,323.257233 318.581726,336.413910 319.134583,349.515686 
	C319.599304,360.528992 326.787231,367.194153 337.138550,368.020721 
	C350.119354,369.057281 359.089539,363.759705 361.753510,352.707672 
	C363.105774,347.097626 363.602386,341.201782 363.814941,335.410492 
	C364.712372,310.956360 365.396881,286.494080 366.081116,262.032593 
	C366.545746,245.420883 366.793945,228.802475 367.382385,212.195679 
	C367.456299,210.109543 369.016968,208.076096 369.888794,206.018234 
	C371.829742,207.818344 372.571533,209.281570 372.953552,210.833374 
	C375.694519,221.966660 378.379822,233.113754 381.050110,244.264313 
	C389.373230,279.020050 397.636810,313.790131 406.030731,348.528717 
	C407.919678,356.346191 412.338043,362.398407 420.512512,366.190552 
M186.500000,165.999084 
	C175.171783,165.999100 163.842728,165.913193 152.515549,166.021393 
	C139.039429,166.150116 126.533272,169.701828 115.384689,177.399139 
	C93.481224,192.521957 77.122559,212.303101 69.287834,237.785583 
	C64.629616,252.936478 62.263237,268.875977 59.820004,284.609009 
	C50.377560,345.412842 41.294258,406.272583 32.155750,467.123291 
	C31.286425,472.911804 30.965359,478.782715 30.384815,484.665466 
	C51.246330,484.665466 70.991631,484.665466 90.790855,484.665466 
	C97.623894,439.514008 104.408653,394.681610 111.193405,349.849182 
	C111.757912,349.402832 112.322418,348.956451 112.886925,348.510101 
	C114.049904,350.317780 115.027664,352.282562 116.406181,353.907379 
	C124.896049,363.913971 135.735443,367.541534 148.801819,367.152924 
	C168.442093,366.568756 188.113449,367.100250 207.769638,366.931458 
	C212.731750,366.888855 217.741089,366.297333 222.635193,365.430176 
	C244.369293,361.579407 260.212158,348.496918 273.824829,332.137756 
	C291.449127,310.957642 300.091309,286.143982 302.932343,259.061707 
	C304.833618,240.937439 303.699585,223.238892 296.223938,206.228485 
	C284.470154,179.483261 265.389282,164.515976 234.972656,165.874878 
	C219.178116,166.580521 203.326065,165.999084 186.500000,165.999084 
z"/>
<path fill="#686867" opacity="1.000000" stroke="none" 
	d="
M420.150757,366.063354 
	C412.338043,362.398407 407.919678,356.346191 406.030731,348.528717 
	C397.636810,313.790131 389.373230,279.020050 381.050110,244.264313 
	C378.379822,233.113754 375.694519,221.966660 372.953552,210.833374 
	C372.571533,209.281570 371.829742,207.818344 369.888794,206.018234 
	C369.016968,208.076096 367.456299,210.109543 367.382385,212.195679 
	C366.793945,228.802475 366.545746,245.420883 366.081116,262.032593 
	C365.396881,286.494080 364.712372,310.956360 363.814941,335.410492 
	C363.602386,341.201782 363.105774,347.097626 361.753510,352.707672 
	C359.089539,363.759705 350.119354,369.057281 337.138550,368.020721 
	C326.787231,367.194153 319.599304,360.528992 319.134583,349.515686 
	C318.581726,336.413910 319.058380,323.257233 319.392517,310.132111 
	C319.905090,289.999176 320.670532,269.872681 321.340149,249.743820 
	C322.275360,221.630508 323.199280,193.516754 324.192963,165.405502 
	C324.304413,162.252319 324.714172,159.094986 325.199677,155.972855 
	C326.158752,149.805466 329.242523,145.124100 335.131714,142.577057 
	C336.655029,141.918259 338.161163,140.934525 339.748749,140.756729 
	C348.926819,139.728897 350.624664,133.745514 351.203766,125.725044 
	C352.759674,104.177010 358.212006,83.713997 371.154327,65.920631 
	C384.327087,47.810509 401.203064,34.699417 423.497925,30.149300 
	C450.192902,24.701176 473.099579,33.002510 492.665161,51.265457 
	C515.161011,72.263626 524.305359,99.107559 525.957397,129.060959 
	C526.396912,137.028976 526.220520,137.037613 533.975525,138.875198 
	C535.753845,139.296570 537.558044,139.635986 539.302124,140.170334 
	C549.218445,143.208374 554.001770,149.233047 553.817444,159.667007 
	C553.464722,179.637131 552.725281,199.600388 552.153381,219.566696 
	C551.319275,248.685654 550.549133,277.806580 549.634827,306.923035 
	C549.227417,319.894684 548.897949,332.885895 547.880554,345.816895 
	C546.613525,361.919128 536.853088,369.656647 520.945557,367.973999 
	C511.327728,366.956665 504.266724,360.396576 504.031342,350.715424 
	C503.647400,334.924377 503.871948,319.108337 504.233765,303.311859 
	C504.748291,280.846832 505.626923,258.390167 506.334869,235.929443 
	C506.618011,226.945862 506.918060,217.962021 507.074951,208.975937 
	C507.106964,207.140060 506.532837,205.293610 506.238190,203.452026 
	C505.792267,203.406799 505.346344,203.361557 504.900421,203.316330 
	C503.589783,207.014877 502.117188,210.664948 500.993225,214.419388 
	C488.647644,255.658249 476.363342,296.915466 464.037323,338.160187 
	C463.038116,341.503632 461.999207,344.848389 460.732361,348.096466 
	C453.664856,366.216858 438.899475,372.830292 420.150757,366.063354 
M370.627991,80.160561 
	C361.095978,98.243942 356.625519,117.322311 359.049408,139.122314 
	C365.373016,139.122314 371.471832,138.980530 377.561951,139.150299 
	C392.606750,139.569733 397.268585,143.203720 401.507996,157.492065 
	C401.697052,158.129211 401.871216,158.771332 402.032166,159.416168 
	C411.008759,195.381897 419.975037,231.350220 428.965759,267.312439 
	C430.513824,273.504761 432.164520,279.671448 433.767822,285.849976 
	C438.040436,278.011536 441.425964,270.238190 444.012360,262.207458 
	C455.375732,226.924576 466.461670,191.552475 477.749939,156.245239 
	C481.625061,144.124771 488.745087,139.089447 501.496460,139.004654 
	C507.112091,138.967331 512.728210,138.998383 518.214355,138.998383 
	C520.955017,111.668808 510.743683,73.574738 482.440765,51.423763 
	C460.013611,33.871407 435.657135,30.932827 409.740448,41.979443 
	C392.177734,49.465317 380.166046,63.142311 370.627991,80.160561 
M514.421387,163.319046 
	C518.433411,166.058762 522.639038,166.175888 526.501404,163.390518 
	C529.976501,160.884430 531.501892,157.181091 530.443604,152.849426 
	C529.313293,148.223236 526.447754,145.174286 521.567322,144.637589 
	C516.927246,144.127350 513.505920,146.353424 511.317047,150.290115 
	C508.655334,155.077316 510.055908,159.240097 514.421387,163.319046 
M365.109558,155.407715 
	C364.501984,149.272415 361.854706,145.759415 357.164429,144.864288 
	C351.483459,143.780136 345.948853,147.437653 344.882568,152.980759 
	C343.818512,158.512482 347.228333,163.832794 352.612213,165.041199 
	C358.838409,166.438660 363.277008,163.290939 365.109558,155.407715 
z"/>
<path fill="#2C93D1" opacity="1.000000" stroke="none" 
	d="
M187.000000,165.999084 
	C203.326065,165.999084 219.178116,166.580521 234.972656,165.874878 
	C265.389282,164.515976 284.470154,179.483261 296.223938,206.228485 
	C303.699585,223.238892 304.833618,240.937439 302.932343,259.061707 
	C300.091309,286.143982 291.449127,310.957642 273.824829,332.137756 
	C260.212158,348.496918 244.369293,361.579407 222.635193,365.430176 
	C217.741089,366.297333 212.731750,366.888855 207.769638,366.931458 
	C188.113449,367.100250 168.442093,366.568756 148.801819,367.152924 
	C135.735443,367.541534 124.896049,363.913971 116.406181,353.907379 
	C115.027664,352.282562 114.049904,350.317780 112.886925,348.510101 
	C112.322418,348.956451 111.757912,349.402832 111.193405,349.849182 
	C104.408653,394.681610 97.623894,439.514008 90.790855,484.665466 
	C70.991631,484.665466 51.246330,484.665466 30.384815,484.665466 
	C30.965359,478.782715 31.286425,472.911804 32.155750,467.123291 
	C41.294258,406.272583 50.377560,345.412842 59.820004,284.609009 
	C62.263237,268.875977 64.629616,252.936478 69.287834,237.785583 
	C77.122559,212.303101 93.481224,192.521957 115.384689,177.399139 
	C126.533272,169.701828 139.039429,166.150116 152.515549,166.021393 
	C163.842728,165.913193 175.171783,165.999100 187.000000,165.999084 
M144.091263,316.451080 
	C151.664566,322.236633 160.194336,325.793152 169.641449,326.859039 
	C216.158340,332.107483 255.979309,291.395203 252.115570,248.107040 
	C250.174896,226.364182 235.702301,207.814484 214.650146,201.969833 
	C179.514038,192.215073 139.380554,214.405609 127.027367,250.418060 
	C118.185654,276.193726 123.947464,299.070526 144.091263,316.451080 
z"/>
<path fill="#FCFBFB" opacity="1.000000" stroke="none" 
	d="
M370.803619,79.836807 
	C380.166046,63.142311 392.177734,49.465317 409.740448,41.979443 
	C435.657135,30.932827 460.013611,33.871407 482.440765,51.423763 
	C510.743683,73.574738 520.955017,111.668808 518.214355,138.998383 
	C512.728210,138.998383 507.112091,138.967331 501.496460,139.004654 
	C488.745087,139.089447 481.625061,144.124771 477.749939,156.245239 
	C466.461670,191.552475 455.375732,226.924576 444.012360,262.207458 
	C441.425964,270.238190 438.040436,278.011536 433.767822,285.849976 
	C432.164520,279.671448 430.513824,273.504761 428.965759,267.312439 
	C419.975037,231.350220 411.008759,195.381897 402.032166,159.416168 
	C401.871216,158.771332 401.697052,158.129211 401.507996,157.492065 
	C397.268585,143.203720 392.606750,139.569733 377.561951,139.150299 
	C371.471832,138.980530 365.373016,139.122314 359.049408,139.122314 
	C356.625519,117.322311 361.095978,98.243942 370.803619,79.836807 
z"/>
<path fill="#F9F8F8" opacity="1.000000" stroke="none" 
	d="
M514.106323,163.088409 
	C510.055908,159.240097 508.655334,155.077316 511.317047,150.290115 
	C513.505920,146.353424 516.927246,144.127350 521.567322,144.637589 
	C526.447754,145.174286 529.313293,148.223236 530.443604,152.849426 
	C531.501892,157.181091 529.976501,160.884430 526.501404,163.390518 
	C522.639038,166.175888 518.433411,166.058762 514.106323,163.088409 
z"/>
<path fill="#FBFAFA" opacity="1.000000" stroke="none" 
	d="
M365.078369,155.815170 
	C363.277008,163.290939 358.838409,166.438660 352.612213,165.041199 
	C347.228333,163.832794 343.818512,158.512482 344.882568,152.980759 
	C345.948853,147.437653 351.483459,143.780136 357.164429,144.864288 
	C361.854706,145.759415 364.501984,149.272415 365.078369,155.815170 
z"/>
<path fill="#FCFBFC" opacity="1.000000" stroke="none" 
	d="
M143.817062,316.221313 
	C123.947464,299.070526 118.185654,276.193726 127.027367,250.418060 
	C139.380554,214.405609 179.514038,192.215073 214.650146,201.969833 
	C235.702301,207.814484 250.174896,226.364182 252.115570,248.107040 
	C255.979309,291.395203 216.158340,332.107483 169.641449,326.859039 
	C160.194336,325.793152 151.664566,322.236633 143.817062,316.221313 
z"/>
</svg>