<?xml version="1.0" standalone="no"?>
<!DOCTYPE svg PUBLIC "-//W3C//DTD SVG 20010904//EN"
 "http://www.w3.org/TR/2001/REC-SVG-20010904/DTD/svg10.dtd">
<svg version="1.0" xmlns="http://www.w3.org/2000/svg"
 width="585.000000pt" height="515.000000pt" viewBox="0 0 585.000000 515.000000"
 preserveAspectRatio="xMidYMid meet">

<g transform="translate(0.000000,515.000000) scale(0.100000,-0.100000)"
fill="#000000" stroke="none">
<path d="M4241 4859 c-218 -43 -428 -190 -559 -392 -95 -147 -142 -292 -173
-526 -10 -85 -20 -156 -22 -156 -1 -1 -31 -12 -67 -24 -114 -37 -153 -71 -171
-148 -9 -40 -26 -476 -55 -1398 -18 -575 -17 -588 29 -655 37 -56 81 -75 167
-75 123 0 188 48 217 158 9 36 19 256 34 732 11 374 25 690 30 703 15 39 37
26 54 -35 9 -32 70 -287 135 -568 189 -813 201 -859 258 -918 46 -49 99 -70
189 -75 74 -4 88 -2 137 22 65 32 99 69 137 151 16 33 118 363 228 732 110
370 208 690 216 710 16 37 17 37 31 18 12 -16 14 -42 9 -135 -10 -204 -35
-1050 -35 -1200 0 -136 2 -150 25 -196 36 -72 86 -99 185 -99 127 1 194 55
220 180 10 51 60 1555 60 1822 0 129 -2 149 -21 183 -27 47 -64 69 -164 96
l-80 21 -12 116 c-6 63 -18 149 -27 190 -80 388 -355 691 -694 762 -73 16
-212 18 -281 4z m267 -65 c216 -44 431 -216 548 -437 76 -145 124 -336 124
-497 l0 -87 -127 -5 c-148 -6 -194 -22 -241 -87 -20 -28 -72 -179 -186 -542
-213 -675 -278 -861 -297 -842 -5 5 -81 301 -169 658 -89 358 -172 674 -185
702 -39 86 -70 98 -285 111 l-115 7 -3 85 c-9 241 91 507 263 698 174 194 435
285 673 236z m-905 -1102 c28 -24 46 -72 40 -104 -8 -43 -57 -83 -103 -83 -88
0 -138 108 -80 171 14 14 34 30 45 35 27 12 74 3 98 -19z m1643 9 c82 -50 62
-174 -33 -197 -55 -14 -123 43 -123 103 0 45 14 70 53 93 40 25 64 25 103 1z"/>
</g>
</svg>
